<?xml version="1.0" standalone="no"?>
<!DOCTYPE svg PUBLIC "-//W3C//DTD SVG 20010904//EN"
 "http://www.w3.org/TR/2001/REC-SVG-20010904/DTD/svg10.dtd">
<svg version="1.0" xmlns="http://www.w3.org/2000/svg"
 width="256.000000pt" height="256.000000pt" viewBox="0 0 256.000000 256.000000"
 preserveAspectRatio="xMidYMid meet">
<metadata>
Created by potrace 1.11, written by Peter Selinger 2001-2013
</metadata>
<g transform="translate(0.000000,256.000000) scale(0.100000,-0.100000)"
fill="#000000" stroke="none">
<path d="M2034 1850 c-22 -4 -88 -31 -145 -58 -57 -27 -349 -167 -648 -311
-299 -144 -549 -261 -555 -261 -6 0 -96 27 -200 60 -104 33 -196 60 -203 60
-8 0 -32 -9 -54 -20 l-40 -21 52 -62 c29 -34 108 -117 175 -183 112 -111 127
-122 168 -128 128 -19 482 71 692 176 24 12 46 20 48 17 4 -4 -43 -497 -64
-664 -13 -100 -13 -135 0 -135 5 0 51 20 103 45 70 33 97 51 106 72 7 15 46
123 86 238 150 434 235 669 242 675 4 3 110 55 235 115 170 81 238 119 269
149 98 96 89 188 -21 225 -46 16 -194 23 -246 11z"/>
<path d="M820 1796 c-67 -25 -160 -76 -160 -89 0 -6 15 -22 33 -34 99 -66 318
-203 326 -203 4 0 67 29 139 65 73 36 135 65 140 65 4 0 20 9 35 19 l29 19
-89 30 c-272 93 -415 142 -417 141 0 0 -17 -6 -36 -13z"/>
</g>
</svg>
