<svg width="320" height="100.09663069044495" viewBox="0 0 320 100.09663069044495" class="css-1j8o68f"><defs id="SvgjsDefs2497"><linearGradient id="SvgjsLinearGradient2504"><stop id="SvgjsStop2505" stop-color="#fbb040" offset="0"></stop><stop id="SvgjsStop2506" stop-color="#f9ed32" offset="1"></stop></linearGradient><linearGradient id="SvgjsLinearGradient2507"><stop id="SvgjsStop2508" stop-color="#fbb040" offset="0"></stop><stop id="SvgjsStop2509" stop-color="#f9ed32" offset="1"></stop></linearGradient><linearGradient id="SvgjsLinearGradient2510"><stop id="SvgjsStop2511" stop-color="#fbb040" offset="0"></stop><stop id="SvgjsStop2512" stop-color="#f9ed32" offset="1"></stop></linearGradient></defs><g id="SvgjsG2498" featurekey="4K7G0D-0" transform="matrix(1.305056966306108,0,0,1.305056966306108,-15.26916003386505,-15.139908395499411)" fill="url(#SvgjsLinearGradient2504)"><path xmlns="http://www.w3.org/2000/svg" d="M35.3,41.5l0.5,0.5c0.5,0.5,1.2,0.8,2.1,0.8c1,0,2.3-0.3,3.7-1l4.1,2.1L44.5,45c-0.4,0.4-2.4,2.4-3.8,3.9  c-0.8,0.9-1.6,1.8-2.4,2.7l-7.1,9.1l-14.1-4.3l-4.9,4.9l26.5,26.5l4.9-4.9l-4.3-14.1l9.1-7.1c0.9-0.7,1.9-1.5,2.7-2.4  c1.4-1.4,3.5-3.5,3.9-3.8l1.2-1.2l1.7,3.4c0,0,0,0,0,0c-1.3,2.8-1.5,4.8-0.4,5.9l0.5,0.5c0.5,0.5,1.3,0.8,2.1,0.8  c0.5,0,0.9-0.1,1.4-0.2l12.1,23.6l3.9-3.9c2.3-2.3,3-6,1.8-9.5l-5-19.4l2.5-2.4c0.6-0.6,1-1.5,1.1-2.3c0.1-0.9-0.2-1.8-0.9-2.4  L73.8,45c-0.7-0.7-1.6-0.9-2.5-0.9l-1-4l12.3-12.3c1.6-1.6,3.5-4.6,4.6-7.3c1.5-3.6,1.5-6.4,0-7.8c-3.3-3.3-12.1,1.6-15.1,4.6  L59.8,29.7l-4.2-1.1c0.1-0.9-0.2-1.8-0.8-2.5l-3.2-3.2c-0.6-0.6-1.5-1-2.4-0.9c-0.9,0.1-1.7,0.4-2.4,1.1l-2.7,2.7l-18.9-4.9  c-3.6-1.3-7.3-0.6-9.6,1.7l-3.9,3.9l23.1,11.8C34.5,39.5,34.6,40.7,35.3,41.5z M24.5,23.2l36.1,9.3l13.3-13.3c1.4-1.4,4-3.1,6.4-4  c3-1.2,4.6-1.1,5.1-0.6c0.5,0.5,0.6,2.1-0.6,5.1c-1,2.4-2.6,5-4,6.4L67.5,39.4l9.3,36.2c0.9,2.7,0.5,5.3-1.1,7L74.3,84L56.9,50  l-3.7,3.7c-0.4,0.4-2.4,2.4-3.8,3.8c-0.8,0.8-1.6,1.5-2.5,2.2l-10.5,8.2l4.3,14.4l-2,2L15.8,61.3l2-2l14.4,4.3l8.2-10.5  c0.7-0.9,1.4-1.7,2.2-2.5c1.4-1.4,3.4-3.5,3.8-3.8l3.7-3.7L16,25.7l1.4-1.4C19,22.7,21.7,22.3,24.5,23.2z M49.4,24.5  c0.1,0,0.3,0,0.4,0.1l3.2,3.2c0,0,0,0,0,0.1l-6-1.5l1.6-1.6C48.8,24.6,49.1,24.5,49.4,24.5C49.3,24.5,49.4,24.5,49.4,24.5z   M75.3,50.5c0,0.3-0.2,0.5-0.4,0.7l-1.4,1.4L72,46.9l3.1,3.2C75.3,50.2,75.3,50.4,75.3,50.5z M59.8,62.4l-0.4-0.4  c-0.1-0.2-0.1-0.7,0.1-1.2l0.9,1.7C60.1,62.4,59.9,62.4,59.8,62.4z M37.6,40.2l-0.4-0.4c0-0.1,0-0.2,0-0.3l1.3,0.7  C38.1,40.2,37.8,40.2,37.6,40.2z"></path></g><g id="SvgjsG2499" featurekey="wPuqcM-0" transform="matrix(1.9519812784217474,0,0,1.9519812784217474,118.43841553572892,16.56139037860815)" fill="url(#SvgjsLinearGradient2507)"><path d="M10.7 6 l0 2.68 l-3.48 0 l0 11.32 l-2.92 0 l0 -11.32 l-3.5 0 l0 -2.68 l9.9 0 z M19 9.44 c0.26 0 0.5 0 0.76 0.06 l0 2.74 c-0.24 -0.06 -0.48 -0.06 -0.68 -0.06 c-1.92 0 -3.5 1.38 -3.68 3.38 l0 4.44 l-2.86 0 l0 -10.4 l2.86 0 l0 2.6 c0.46 -1.58 1.72 -2.76 3.6 -2.76 z M29.08 9.6 l2.86 0 l0 10.4 l-2.86 0 l0 -1.28 c-0.06 0.42 -1.08 1.48 -2.88 1.48 c-2.38 0 -5.14 -1.72 -5.14 -5.42 c0 -3.58 2.76 -5.36 5.14 -5.36 c1.8 0 2.82 1.12 2.88 1.34 l0 -1.16 z M26.6 17.66 c1.4 0 2.62 -0.96 2.62 -2.88 c0 -1.86 -1.22 -2.82 -2.62 -2.82 c-1.44 0 -2.76 0.98 -2.76 2.82 c0 1.9 1.32 2.88 2.76 2.88 z M45.300000000000004 9.56 l-4.66 10.44 l-2.5 0 l-4.66 -10.44 l2.86 0 l3.04 7 l3.06 -7 l2.86 0 z M51.96000000000001 9.42 c2.36 0 5.62 1.78 5 6.38 l-7.56 0 c0.36 1.3 1.44 1.98 2.84 1.98 c1.3 0 1.8 -0.3 2.54 -0.7 l1.58 1.54 c-0.9 0.94 -2.18 1.58 -4.22 1.58 c-2.6 0 -5.64 -1.78 -5.64 -5.36 c0 -3.64 3.1 -5.42 5.46 -5.42 z M51.96000000000001 11.86 c-1.04 0 -2.14 0.64 -2.52 1.92 l5 0 c-0.32 -1.28 -1.46 -1.92 -2.48 -1.92 z M61.64 5.859999999999999 l0 14.14 l-2.86 0 l0 -14.14 l2.86 0 z M78.54 6 l0 9.28 c0 3.68 -2.94 4.96 -4.94 4.96 c-2.14 0 -3.46 -0.84 -4.32 -1.94 l1.74 -2.14 c0.52 0.58 1.36 1.26 2.42 1.26 c0.76 0 2.18 -0.32 2.18 -2.54 l0 -8.88 l2.92 0 z M85.9 9.42 c2.36 0 5.62 1.78 5 6.38 l-7.56 0 c0.36 1.3 1.44 1.98 2.84 1.98 c1.3 0 1.8 -0.3 2.54 -0.7 l1.58 1.54 c-0.9 0.94 -2.18 1.58 -4.22 1.58 c-2.6 0 -5.64 -1.78 -5.64 -5.36 c0 -3.64 3.1 -5.42 5.46 -5.42 z M85.9 11.86 c-1.04 0 -2.14 0.64 -2.52 1.92 l5 0 c-0.32 -1.28 -1.46 -1.92 -2.48 -1.92 z M100.4 9.6 l2.86 0 l0 10.4 l-2.86 0 l0 -1.28 c-0.06 0.42 -1.08 1.48 -2.88 1.48 c-2.38 0 -5.14 -1.72 -5.14 -5.42 c0 -3.58 2.76 -5.36 5.14 -5.36 c1.8 0 2.82 1.12 2.88 1.34 l0 -1.16 z M97.92 17.66 c1.4 0 2.62 -0.96 2.62 -2.88 c0 -1.86 -1.22 -2.82 -2.62 -2.82 c-1.44 0 -2.76 0.98 -2.76 2.82 c0 1.9 1.32 2.88 2.76 2.88 z"></path></g><g id="SvgjsG2500" featurekey="Li3fkV-0" transform="matrix(0.3856685721028054,0,0,0.3856685721028054,120.02314027615914,63.8865367692239)" fill="url(#SvgjsLinearGradient2510)"><path d="M1.36 5.84 l4.56 12.42 l4.6 -12.42 l1.4 0 l-5.38 14.16 l-1.32 0 l-5.28 -14.16 l1.42 0 z M29.344 5.84 l0 14.16 l-1.32 0 l0 -14.16 l1.32 0 z M51.668000000000006 12.08 q1.54 0 2.38 -0.69 t0.84 -1.83 t-0.82 -1.82 t-2.44 -0.7 l-2.86 0 l0 5.04 l2.9 0 z M51.26800000000001 5.84 q4.9 0 4.94 3.72 q0 3.14 -3.62 3.64 l4.12 6.8 l-1.5 0 l-3.98 -6.72 l-2.46 0 l0 6.72 l-1.32 0 l0 -14.16 l3.82 0 z M82.83200000000001 5.84 l0 1.2 l-4.84 0 l0 12.96 l-1.32 0 l0 -12.96 l-4.84 0 l0 -1.2 l11 0 z M100.29600000000002 5.84 l0 8.5 q0 2.3 0.95 3.54 t2.89 1.28 q3.8 0 3.84 -5.02 l0 -8.3 l1.32 0 l0 8.64 q0 2.78 -1.3 4.32 t-3.86 1.56 q-2.52 0 -3.83 -1.53 t-1.33 -4.25 l0 -8.74 l1.32 0 z M128.8 15.04 l6.5 0 l-3.2 -7.76 z M132.84 5.84 l5.96 14.16 l-1.48 0 l-1.54 -3.76 l-7.5 0 l-1.6 3.76 l-1.38 0 l6.18 -14.16 l1.36 0 z M156.38400000000001 5.84 l0 12.96 l6.6 0 l0 1.2 l-7.92 0 l0 -14.16 l1.32 0 z M200.372 15.04 l6.5 0 l-3.2 -7.76 z M204.412 5.84 l5.96 14.16 l-1.48 0 l-1.54 -3.76 l-7.5 0 l-1.6 3.76 l-1.38 0 l6.18 -14.16 l1.36 0 z M230.67600000000002 5.48 q2.46 0 3.86 1.78 l-1.14 0.82 q-1.04 -1.4 -2.76 -1.4 q-1.4 0 -2.27 0.72 t-0.91 1.96 q0 1.08 0.66 1.75 t2.3 1.13 q2.16 0.64 2.88 1.13 t1.09 1.21 t0.37 1.8 q0 1.72 -1.23 2.83 t-3.17 1.15 q-3.06 0 -4.6 -2.14 l1.26 -0.84 q1.06 1.76 3.24 1.78 q1.42 0 2.3 -0.79 t0.88 -1.99 q0 -0.7 -0.25 -1.15 t-0.76 -0.78 t-1.3 -0.6 t-1.85 -0.63 q-1.6 -0.52 -2.37 -1.46 t-0.77 -2.4 q0 -1.72 1.29 -2.8 t3.25 -1.08 z M256.02000000000004 5.48 q2.46 0 3.86 1.78 l-1.14 0.82 q-1.04 -1.4 -2.76 -1.4 q-1.4 0 -2.27 0.72 t-0.91 1.96 q0 1.08 0.66 1.75 t2.3 1.13 q2.16 0.64 2.88 1.13 t1.09 1.21 t0.37 1.8 q0 1.72 -1.23 2.83 t-3.17 1.15 q-3.06 0 -4.6 -2.14 l1.26 -0.84 q1.06 1.76 3.24 1.78 q1.42 0 2.3 -0.79 t0.88 -1.99 q0 -0.7 -0.25 -1.15 t-0.76 -0.78 t-1.3 -0.6 t-1.85 -0.63 q-1.6 -0.52 -2.37 -1.46 t-0.77 -2.4 q0 -1.72 1.29 -2.8 t3.25 -1.08 z M278.644 5.84 l0 14.16 l-1.32 0 l0 -14.16 l1.32 0 z M300.788 5.48 q2.46 0 3.86 1.78 l-1.14 0.82 q-1.04 -1.4 -2.76 -1.4 q-1.4 0 -2.27 0.72 t-0.91 1.96 q0 1.08 0.66 1.75 t2.3 1.13 q2.16 0.64 2.88 1.13 t1.09 1.21 t0.37 1.8 q0 1.72 -1.23 2.83 t-3.17 1.15 q-3.06 0 -4.6 -2.14 l1.26 -0.84 q1.06 1.76 3.24 1.78 q1.42 0 2.3 -0.79 t0.88 -1.99 q0 -0.7 -0.25 -1.15 t-0.76 -0.78 t-1.3 -0.6 t-1.85 -0.63 q-1.6 -0.52 -2.37 -1.46 t-0.77 -2.4 q0 -1.72 1.29 -2.8 t3.25 -1.08 z M331.392 5.84 l0 1.2 l-4.84 0 l0 12.96 l-1.32 0 l0 -12.96 l-4.84 0 l0 -1.2 l11 0 z M349.456 15.04 l6.5 0 l-3.2 -7.76 z M353.496 5.84 l5.96 14.16 l-1.48 0 l-1.54 -3.76 l-7.5 0 l-1.6 3.76 l-1.38 0 l6.18 -14.16 l1.36 0 z M377.41999999999996 5.84 l8.62 12.4 l0.04 0 l0 -12.4 l1.32 0 l0 14.16 l-1.7 0 l-8.62 -12.4 l-0.04 0 l0 12.4 l-1.32 0 l0 -14.16 l1.7 0 z M414.804 5.84 l0 1.2 l-4.84 0 l0 12.96 l-1.32 0 l0 -12.96 l-4.84 0 l0 -1.2 l11 0 z"></path></g></svg>