<svg width="369.91599829321905" height="95.77718650215375" viewBox="0 0 369.91599829321905 95.77718650215375" class="css-1j8o68f"><defs id="SvgjsDefs3032"><linearGradient id="SvgjsLinearGradient3039"><stop id="SvgjsStop3040" stop-color="#8f5e25" offset="0"></stop><stop id="SvgjsStop3041" stop-color="#fbf4a1" offset="0.5"></stop><stop id="SvgjsStop3042" stop-color="#8f5e25" offset="1"></stop></linearGradient><linearGradient id="SvgjsLinearGradient3043"><stop id="SvgjsStop3044" stop-color="#8f5e25" offset="0"></stop><stop id="SvgjsStop3045" stop-color="#fbf4a1" offset="0.5"></stop><stop id="SvgjsStop3046" stop-color="#8f5e25" offset="1"></stop></linearGradient><linearGradient id="SvgjsLinearGradient3047"><stop id="SvgjsStop3048" stop-color="#8f5e25" offset="0"></stop><stop id="SvgjsStop3049" stop-color="#fbf4a1" offset="0.5"></stop><stop id="SvgjsStop3050" stop-color="#8f5e25" offset="1"></stop></linearGradient></defs><g id="SvgjsG3033" featurekey="symbolFeature-0" transform="matrix(1.0641909611350417,0,0,1.0641909611350417,-15.667307688947025,-5.320954805675209)" fill="url(#SvgjsLinearGradient3039)"><g xmlns="http://www.w3.org/2000/svg"><path d="M82.542,29.457C78.891,20.185,71.99,12.81,63.037,8.545l1.068-2.438L61.566,5l-1.069,2.443   c-2.039-0.802-4.13-1.441-6.242-1.887l-0.856,4.063c2.006,0.422,3.992,1.043,5.924,1.826l-1.373,3.162   C42.214,8.276,24.14,15.602,17.333,31.256c-6.808,15.652,0.162,33.871,15.524,41.059l-1.336,3.072   c-1.719-0.799-3.382-1.729-4.945-2.793l-2.334,3.436c1.638,1.111,3.371,2.098,5.162,2.951l-1.065,2.437l2.537,1.104l1.069-2.438   c3.777,1.485,7.657,2.34,11.522,2.608v4.898h-3.035L32.071,95h28.267l-8.361-7.41h-3.035v-4.895   c14.042-1.006,27.083-9.588,33.076-23.369C86.176,49.766,86.361,39.157,82.542,29.457z M57.115,16.153   c0.316,0.128,0.639,0.223,0.953,0.359c1.756,0.764,3.389,1.691,4.912,2.731l-5.465,3.589l-1.507-3.563L57.115,16.153z    M64.074,38.197l1.201-2.098l2.518,0.222l0.625-1.762l5.104-1.709l0.099-0.521c1.532,3.667,2.358,7.627,2.338,11.653l-1.526-1.286   l-1.068-3.564l-0.687-0.203l0.507,2.475L71.54,42.14l0.367-1.156c0,0-0.613-2.514-0.582-2.893c0.032-0.382-5.729,1.736-5.729,1.736   l3.381,1.371l0.27,1.38l3.682,1.794l2.895,2.178c-0.276,3.07-1.028,6.146-2.323,9.127c-2.065,4.757-5.235,8.693-9.076,11.656   l-2.526-0.703l0.041-4.782l3.129-8.527l-6.535-2.701l-0.793-5.868l5.58-5.138l1.729,0.025L64.074,38.197z M66.645,31.604   l0.082-1.857l3.424-1.857l0.396,5.121l-2.731,0.266l0.27-1.628L66.645,31.604z M65.584,22.998l1.148-0.692   c0.313,0.302,0.645,0.588,0.942,0.9L65.584,22.998z M48.483,14.165c1.828,0.139,3.66,0.455,5.478,0.946l-2.414,3.385l-3.187-3.717   L48.483,14.165z M30.936,64.227l-1.77-2.953l6.373-12.646l-0.686-6.115l2.529-2.824l-1.355-0.883l-1.859-3.43l-3.709-3.5   l-2.979-9.881l0.938-2.009c4.328-3.216,9.449-5.217,14.807-5.768l-1.191,0.725l2.408,5.845l1.93-0.759l1.084-3.169l4.05,3.076   l0.412,7.742l-8.093,0.552l-3.902,2.956l-0.486,2.117l-4.539-3.281l-1.605,2.357l3.148,0.783l0.189,4.592l1.43,1.063l3.066,0.311   l4.768,5.42l3.508,5.314l-4,4.512l-8.508,2.844L31.19,62.3L30.936,64.227z M41.87,37.414l-4.434-3.528L40.78,34.9L41.87,37.414z    M32.061,69.975c-0.037-0.021-0.08-0.039-0.119-0.06l0.191-0.08L32.061,69.975z M78.209,57.671   c-7.555,17.372-27.628,25.494-45.089,18.41l1.335-3.072c15.74,6.339,33.814-0.991,40.622-16.645   c6.806-15.656-0.163-33.872-15.53-41.063l1.375-3.163c8.159,3.786,14.449,10.441,17.758,18.84   C82.092,39.646,81.926,49.127,78.209,57.671z"></path></g></g><g id="SvgjsG3034" featurekey="nameFeature-0" transform="matrix(1.1424802247195942,0,0,1.1424802247195942,93.6167991518364,1.428929575204025)" fill="url(#SvgjsLinearGradient3043)"><path d="M18.242 12.754000000000001 l0 2.5 l-7.168 0 l0 24.746 l-2.6953 0 l0 -24.746 l-7.168 0 l0 -2.5 l17.031 0 z M42.474546875 40 l-6.9727 -12.402 l-5.1953 0 l0 12.402 l-2.7148 0 l0 -27.246 l8.75 0 c5.3906 0 8.0078 3.3789 8.0078 7.5391 c0 3.75 -2.207 6.6016 -6.1523 7.1875 l7.4023 12.52 l-3.125 0 z M30.306646875 15.195 l0 10.117 l5.7227 0 c3.8867 0 5.7031 -2.0508 5.7031 -5.0195 c0 -2.9297 -1.8164 -5.0977 -5.7031 -5.0977 l-5.7227 0 z M72.95715625 40 l-2.4609 -6.8359 l-12.637 0 l-2.4609 6.8359 l-2.8711 0 l10.039 -27.246 l3.2031 0 l10.039 27.246 l-2.8516 0 z M58.75785625 30.6836 l10.84 0 l-5.4297 -15.078 z M101.896203125 12.754000000000001 l2.8516 0 l-9.9805 27.246 l-2.6367 0 l-9.9805 -27.246 l2.8125 0 l8.4766 23.711 z M128.47265625 15.254000000000001 l-11.406 0 l0 9.9023 l10.02 0 l0 2.4805 l-10.02 0 l0 9.8633 l11.406 0 l0 2.5 l-14.219 0 l0 -27.246 l14.219 0 l0 2.5 z M141.689459375 37.5 l9.7656 0 l0 2.5 l-12.48 0 l0 -27.246 l2.7148 0 l0 24.746 z M176.931615625 40.37109 c-1.8359 0 -3.8086 -0.52734 -5.5273 -1.5234 l1.2109 -2.3242 c1.2305 0.82031 2.793 1.2891 4.2188 1.2891 c3.2422 0 5.1953 -2.4023 5.1953 -6.0547 l0 -19.004 l2.7148 0 l0 19.434 c0 5 -3.1055 8.1836 -7.8125 8.1836 z M211.22265625 15.254000000000001 l-11.406 0 l0 9.9023 l10.02 0 l0 2.4805 l-10.02 0 l0 9.8633 l11.406 0 l0 2.5 l-14.219 0 l0 -27.246 l14.219 0 l0 2.5 z M238.990359375 40 l-2.4609 -6.8359 l-12.637 0 l-2.4609 6.8359 l-2.8711 0 l10.039 -27.246 l3.2031 0 l10.039 27.246 l-2.8516 0 z M224.791059375 30.6836 l10.84 0 l-5.4297 -15.078 z"></path></g><g id="SvgjsG3035" featurekey="sloganFeature-0" transform="matrix(0.8059023626205561,0,0,0.8059023626205561,94.64572456020187,63.26217095208994)" fill="url(#SvgjsLinearGradient3047)"><path d="M10.713 6.074 l2.4805 0 l-5.1367 13.926 l-2.5098 0 l-5.1074 -13.926 l2.4707 0 l3.9063 11.123 z M20.7920046875 20 l0 -13.926 l2.334 0 l0 13.926 l-2.334 0 z M39.72855625 20 l-3.6133 -6.2109 l-1.5039 0 l0 6.2109 l-2.334 0 l0 -13.926 l4.834 0 c3.0176 0 4.3457 1.8066 4.3457 4.043 c0 1.9434 -1.1523 3.252 -2.998 3.584 l4.0137 6.2988 l-2.7441 0 z M34.61135625 8.047 l0 4.0137 l2.1582 0 c1.709 0 2.4414 -0.80078 2.4414 -1.9922 c0 -1.1816 -0.73242 -2.0215 -2.4414 -2.0215 l-2.1582 0 z M57.8935203125 6.074 l0 2.0801 l-3.4375 0 l0 11.846 l-2.3242 0 l0 -11.846 l-3.4473 0 l0 -2.0801 l9.209 0 z M70.492196875 20.18555 c-2.959 0 -5.2637 -1.6504 -5.2637 -4.9316 l0 -9.1797 l2.3438 0 l0 8.8574 c0 2.2168 1.2793 3.1641 2.9199 3.1641 s2.9395 -0.95703 2.9395 -3.1641 l0 -8.8574 l2.334 0 l0 9.1797 c0 3.2813 -2.3047 4.9316 -5.2734 4.9316 z M93.7648359375 20 l-1.1035 -3.0957 l-6.084 0 l-1.0938 3.0957 l-2.4121 0 l5.127 -13.926 l2.8418 0 l5.127 13.926 l-2.4023 0 z M87.2900359375 14.9023 l4.668 0 l-2.334 -6.582 z M106.109403125 17.9102 l4.5996 0 l0 2.0898 l-6.9336 0 l0 -13.926 l2.334 0 l0 11.836 z M137.8595625 20 l-1.1035 -3.0957 l-6.084 0 l-1.0938 3.0957 l-2.4121 0 l5.127 -13.926 l2.8418 0 l5.127 13.926 l-2.4023 0 z M131.3847625 14.9023 l4.668 0 l-2.334 -6.582 z M152.3427296875 20.18555 c-2.9492 0 -5.1563 -1.4063 -5.6055 -3.8672 l2.4023 -0.55664 c0.25391 1.6016 1.5723 2.4805 3.291 2.4805 c1.3574 0 2.5879 -0.57617 2.5684 -2.041 c-0.019531 -1.5234 -1.709 -1.9629 -3.5352 -2.4805 c-2.1094 -0.61523 -4.2773 -1.3184 -4.2773 -3.877 c0 -2.5977 2.1289 -3.9648 4.7754 -3.9648 c2.4414 0 4.7559 1.0254 5.293 3.5254 l-2.2559 0.56641 c-0.3125 -1.4844 -1.4648 -2.1387 -2.9199 -2.1387 c-1.2988 0 -2.5293 0.55664 -2.5293 1.9727 c0 1.2891 1.4746 1.6895 3.1641 2.1582 c2.1777 0.60547 4.6973 1.3477 4.6973 4.1406 c0 2.8809 -2.4121 4.082 -5.0684 4.082 z M170.048784375 20.18555 c-2.9492 0 -5.1563 -1.4063 -5.6055 -3.8672 l2.4023 -0.55664 c0.25391 1.6016 1.5723 2.4805 3.291 2.4805 c1.3574 0 2.5879 -0.57617 2.5684 -2.041 c-0.019531 -1.5234 -1.709 -1.9629 -3.5352 -2.4805 c-2.1094 -0.61523 -4.2773 -1.3184 -4.2773 -3.877 c0 -2.5977 2.1289 -3.9648 4.7754 -3.9648 c2.4414 0 4.7559 1.0254 5.293 3.5254 l-2.2559 0.56641 c-0.3125 -1.4844 -1.4648 -2.1387 -2.9199 -2.1387 c-1.2988 0 -2.5293 0.55664 -2.5293 1.9727 c0 1.2891 1.4746 1.6895 3.1641 2.1582 c2.1777 0.60547 4.6973 1.3477 4.6973 4.1406 c0 2.8809 -2.4121 4.082 -5.0684 4.082 z M183.2822390625 20 l0 -13.926 l2.334 0 l0 13.926 l-2.334 0 z M199.240190625 20.18555 c-2.9492 0 -5.1563 -1.4063 -5.6055 -3.8672 l2.4023 -0.55664 c0.25391 1.6016 1.5723 2.4805 3.291 2.4805 c1.3574 0 2.5879 -0.57617 2.5684 -2.041 c-0.019531 -1.5234 -1.709 -1.9629 -3.5352 -2.4805 c-2.1094 -0.61523 -4.2773 -1.3184 -4.2773 -3.877 c0 -2.5977 2.1289 -3.9648 4.7754 -3.9648 c2.4414 0 4.7559 1.0254 5.293 3.5254 l-2.2559 0.56641 c-0.3125 -1.4844 -1.4648 -2.1387 -2.9199 -2.1387 c-1.2988 0 -2.5293 0.55664 -2.5293 1.9727 c0 1.2891 1.4746 1.6895 3.1641 2.1582 c2.1777 0.60547 4.6973 1.3477 4.6973 4.1406 c0 2.8809 -2.4121 4.082 -5.0684 4.082 z M220.1591453125 6.074 l0 2.0801 l-3.4375 0 l0 11.846 l-2.3242 0 l0 -11.846 l-3.4473 0 l0 -2.0801 l9.209 0 z M236.927921875 20 l-1.1035 -3.0957 l-6.084 0 l-1.0938 3.0957 l-2.4121 0 l5.127 -13.926 l2.8418 0 l5.127 13.926 l-2.4023 0 z M230.453121875 14.9023 l4.668 0 l-2.334 -6.582 z M256.3722890625 6.074 l2.334 0 l0 13.926 l-2.6172 0 l-6.8359 -10.625 l0 10.625 l-2.3145 0 l0 -13.926 l2.5879 0 l6.8457 10.557 l0 -10.557 z M275.542934375 6.074 l0 2.0801 l-3.4375 0 l0 11.846 l-2.3242 0 l0 -11.846 l-3.4473 0 l0 -2.0801 l9.209 0 z"></path></g></svg>