<svg width="369.7446808510638" height="77.82376383066519" viewBox="0 0 369.7446808510638 77.82376383066519" class="css-1j8o68f"><defs id="SvgjsDefs1963"></defs><g id="SvgjsG1964" featurekey="rZF8Vg-0" transform="matrix(1.1533436819371379,0,0,1.1533436819371379,-5.7892017568178735,-16.404422463015866)" fill="#e9b5d2"><g xmlns="http://www.w3.org/2000/svg"><path d="M64.3,66.5c13.3,0,24-10.8,24-24c0-13.3-10.8-24-24-24c-13.3,0-24,10.8-24,24c0,1.7,0.2,3.5,0.6,5.1L32,49.7   c-0.4,0.1-0.7,0.5-0.8,0.9c0,0.4,0.2,0.9,0.6,1l9,4v6.6c0,0.4,0.2,0.8,0.6,0.9c0.1,0.1,0.3,0.1,0.4,0.1c0.2,0,0.5-0.1,0.6-0.2   l3.5-2.8l2.9,2.7c0.2,0.2,0.4,0.3,0.7,0.3c0,0,0,0,0.1,0c0.3,0,0.5-0.1,0.7-0.4l0.5-0.6C54.8,65.1,59.4,66.5,64.3,66.5z M42.3,42.5   c0-12.1,9.9-22,22-22s22,9.9,22,22s-9.9,22-22,22c-4.4,0-8.6-1.3-12.2-3.7l14.7-17.4c0-0.1,0.1-0.1,0.1-0.2l0.1-0.1   c0-0.1,0.1-0.2,0.1-0.3l0,0c0-0.1,0-0.2-0.1-0.4l0,0c0,0,0-0.1-0.1-0.1c0-0.1-0.1-0.1-0.1-0.2l0,0L66.7,42l-0.1-0.1   c-0.1,0-0.1,0-0.2-0.1c-0.1,0-0.1,0-0.2-0.1c-0.1,0-0.1,0-0.2,0s-0.1,0-0.2,0c0,0,0,0-0.1,0l-22.9,5.5   C42.5,45.6,42.3,44.1,42.3,42.5z M57.8,45.7l-16.1,8.2L35.4,51L57.8,45.7z M42.8,60.1v-2.8l1.6,1.5L42.8,60.1z M49.4,60.8l-2.7-2.6   l0,0l-3-2.8l-0.1-0.1L62,45.9L49.4,60.8z"></path><path d="M77.4,14.3c-0.5-0.2-1.1,0-1.4,0.5c-0.2,0.5,0,1.1,0.5,1.4c14.5,6.7,20.8,24,14.1,38.5c-6.7,14.5-24,20.8-38.5,14.1   c-0.5-0.2-1.1,0-1.4,0.5c-0.2,0.5,0,1.1,0.5,1.4c3.9,1.8,8,2.7,12.1,2.9v6.1h-7.6c-0.6,0-1,0.5-1,1c0,0.6,0.5,1,1,1H72   c0.6,0,1-0.5,1-1c0-0.6-0.5-1-1-1h-6.6v-6.1c11.3-0.4,22.1-7,27.2-17.9C99.7,40,92.9,21.5,77.4,14.3z"></path><path d="M35.7,58.2l-0.9,0.5c-0.3,0.2-0.4,0.6-0.2,0.9c0.1,0.2,0.4,0.3,0.6,0.3c0.1,0,0.2,0,0.3-0.1l0.9-0.5   c0.3-0.2,0.4-0.6,0.2-0.9C36.4,58.1,36,58,35.7,58.2z"></path><path d="M17.9,51.8c-0.1-0.4-0.4-0.6-0.8-0.5c-0.7,0.2-1.5,0.4-2.1,0.8c-0.3,0.2-0.4,0.6-0.2,0.9c0.1,0.2,0.4,0.3,0.6,0.3   c0.1,0,0.2,0,0.3-0.1c0.5-0.3,1.1-0.5,1.7-0.6C17.7,52.6,17.9,52.2,17.9,51.8z"></path><path d="M14.7,62.5c-0.4-0.4-0.8-0.8-1.1-1.3c-0.2-0.3-0.6-0.4-0.9-0.2c-0.3,0.2-0.4,0.6-0.2,0.9c0.4,0.6,0.8,1.1,1.4,1.6l0.1,0.1   c0.1,0.1,0.3,0.1,0.4,0.1c0.2,0,0.4-0.1,0.5-0.3c0.2-0.3,0.2-0.7-0.1-1L14.7,62.5z"></path><path d="M12.1,58.4L12.1,58.4c0.4,0,0.7-0.3,0.7-0.6c0-0.2,0-0.4,0.1-0.6c0.1-0.4,0.2-0.8,0.3-1.1s0-0.7-0.4-0.9   c-0.3-0.1-0.7,0-0.9,0.4c-0.2,0.5-0.3,0.9-0.4,1.4c0,0.3-0.1,0.5-0.1,0.8C11.4,58,11.7,58.4,12.1,58.4z"></path><path d="M12.7,67.6c-0.1,0-0.2,0-0.4,0c-0.5,0-1.1,0-1.6-0.1c-0.4,0-0.7,0.2-0.7,0.6s0.2,0.7,0.6,0.7c0.6,0.1,1.2,0.1,1.7,0.1   c0.1,0,0.3,0,0.4,0c0.4,0,0.7-0.3,0.7-0.7C13.3,67.9,13,67.6,12.7,67.6z"></path><path d="M18.3,66.3c-0.6,0.3-1.2,0.5-1.8,0.7c-0.4,0.1-0.6,0.5-0.5,0.8s0.4,0.5,0.7,0.5c0.1,0,0.1,0,0.2,0c0.7-0.2,1.4-0.5,2-0.8   c0.3-0.2,0.5-0.6,0.3-0.9C19.1,66.3,18.7,66.1,18.3,66.3z"></path><path d="M24.6,59.9h0.1c0.3,0,0.6-0.2,0.7-0.6c0.1-0.4,0.1-0.8,0.1-1.1c0-0.4,0-0.8-0.1-1.1c-0.1-0.4-0.4-0.6-0.8-0.6   c-0.4,0.1-0.6,0.4-0.6,0.8c0,0.3,0.1,0.6,0.1,0.9c0,0.3,0,0.6-0.1,0.9C24,59.5,24.3,59.9,24.6,59.9z"></path><path d="M25.8,63.5c-0.7,0.3-1.3,0.5-1.9,0.6c-0.4,0.1-0.6,0.5-0.5,0.8s0.4,0.5,0.7,0.5c0.1,0,0.1,0,0.2,0c0.6-0.2,1.3-0.4,2-0.7   c0.4-0.1,0.5-0.5,0.4-0.9C26.6,63.5,26.2,63.3,25.8,63.5z"></path><path d="M31.3,60.8c-0.6,0.3-1.2,0.7-1.8,1c-0.3,0.2-0.5,0.6-0.3,0.9c0.1,0.2,0.4,0.4,0.6,0.4c0.1,0,0.2,0,0.3-0.1   c0.6-0.3,1.2-0.7,1.8-1c0.3-0.2,0.4-0.6,0.3-0.9C32,60.7,31.6,60.6,31.3,60.8z"></path><path d="M20.1,64.6c-0.7,0-1.3-0.1-1.9-0.3c-0.4-0.1-0.7,0.1-0.8,0.5c-0.1,0.4,0.1,0.7,0.5,0.8c0.7,0.2,1.4,0.3,2.2,0.3l0,0   c0.4,0,0.7-0.3,0.7-0.7C20.8,64.9,20.5,64.6,20.1,64.6z"></path><path d="M22.9,54.3c0.2,0,0.4-0.1,0.5-0.2c0.3-0.3,0.3-0.7,0-1c-0.5-0.5-1.2-1-1.9-1.3c-0.3-0.2-0.7,0-0.9,0.3   c-0.2,0.3,0,0.7,0.3,0.9c0.6,0.3,1.1,0.6,1.5,1C22.5,54.2,22.7,54.3,22.9,54.3z"></path><path d="M23.7,62.5c-0.3-0.2-0.7-0.1-0.9,0.2c-0.3,0.5-0.8,1-1.2,1.5c-0.3,0.3-0.3,0.7,0,1c0.1,0.1,0.3,0.2,0.5,0.2   s0.3-0.1,0.5-0.2c0.5-0.5,1-1.1,1.4-1.7C24.1,63.1,24,62.7,23.7,62.5z"></path><path d="M6.9,66.6c-0.3-0.1-0.6-0.3-0.9-0.4c-0.3-0.2-0.7,0-0.9,0.3c-0.2,0.3,0,0.7,0.3,0.9c0.3,0.2,0.6,0.3,1,0.4   c0.1,0,0.2,0,0.3,0c0.3,0,0.5-0.2,0.6-0.4C7.4,67.1,7.2,66.7,6.9,66.6z"></path></g></g><g id="SvgjsG1965" featurekey="6VBqdG-0" transform="matrix(2.4752687738983896,0,0,2.4752687738983896,122.01978627921143,-2.5050741652284714)" fill="#ffffff"><path d="M10.44 6 l0 2.04 l-3.72 0 l0 11.96 l-2.2 0 l0 -11.96 l-3.72 0 l0 -2.04 l9.64 0 z M18.240000000000002 9.44 c0.22 0 0.42 0 0.62 0.04 l0 2.06 c-0.2 -0.04 -0.4 -0.04 -0.56 -0.04 c-1.96 0 -3.56 1.4 -3.8 3.6 l0 4.9 l-2.16 0 l0 -10.4 l2.16 0 l0 2.66 c0.44 -1.54 1.78 -2.82 3.74 -2.82 z M25.34 9.42 c1.88 0 3.12 1.12 3.38 1.8 l0 -1.62 l2.16 0 l0 10.4 l-2.16 0 l0 -1.72 c-0.26 0.84 -1.5 1.92 -3.38 1.92 c-2.36 0 -5.18 -1.76 -5.18 -5.4 c0 -3.58 2.82 -5.38 5.18 -5.38 z M25.62 11.34 c-1.62 0 -3.36 1.16 -3.36 3.46 c0 2.32 1.74 3.48 3.36 3.48 s3.2 -1.14 3.2 -3.48 c0 -2.32 -1.58 -3.46 -3.2 -3.46 z M43.6 9.58 l-4.64 10.42 l-1.84 0 l-4.64 -10.42 l2.16 0 l3.4 7.72 l3.4 -7.72 l2.16 0 z M50.18 9.42 c2.36 0 5.56 1.8 5.06 6.16 l-8.28 0 c0.32 1.86 1.8 2.78 3.48 2.78 c1.38 0 2.12 -0.36 2.88 -0.96 l1.22 1.16 c-0.92 1.04 -2.24 1.64 -4.16 1.64 c-2.64 0 -5.58 -1.8 -5.58 -5.38 c0 -3.6 3.02 -5.4 5.38 -5.4 z M50.18 11.28 c-1.34 0 -2.84 0.9 -3.2 2.72 l6.36 0 c-0.24 -1.82 -1.82 -2.72 -3.16 -2.72 z M59.26 5.859999999999999 l0 14.14 l-2.16 0 l0 -14.14 l2.16 0 z M75.56 6 l0 9.3 c0 3.64 -2.46 4.94 -4.6 4.94 c-1.9 0 -3.22 -0.8 -4 -1.92 l1.34 -1.58 c0.54 0.74 1.42 1.38 2.56 1.38 c1.18 0 2.5 -0.58 2.5 -3.08 l0 -9.04 l2.2 0 z M82.84 9.42 c2.36 0 5.56 1.8 5.06 6.16 l-8.28 0 c0.32 1.86 1.8 2.78 3.48 2.78 c1.38 0 2.12 -0.36 2.88 -0.96 l1.22 1.16 c-0.92 1.04 -2.24 1.64 -4.16 1.64 c-2.64 0 -5.58 -1.8 -5.58 -5.38 c0 -3.6 3.02 -5.4 5.38 -5.4 z M82.84 11.28 c-1.34 0 -2.84 0.9 -3.2 2.72 l6.36 0 c-0.24 -1.82 -1.82 -2.72 -3.16 -2.72 z M94.54 9.42 c1.88 0 3.12 1.12 3.38 1.8 l0 -1.62 l2.16 0 l0 10.4 l-2.16 0 l0 -1.72 c-0.26 0.84 -1.5 1.92 -3.38 1.92 c-2.36 0 -5.18 -1.76 -5.18 -5.4 c0 -3.58 2.82 -5.38 5.18 -5.38 z M94.82000000000001 11.34 c-1.62 0 -3.36 1.16 -3.36 3.46 c0 2.32 1.74 3.48 3.36 3.48 s3.2 -1.14 3.2 -3.48 c0 -2.32 -1.58 -3.46 -3.2 -3.46 z"></path></g><g id="SvgjsG1966" featurekey="rMoqOW-0" transform="matrix(0.5714851217370196,0,0,0.5714851217370196,127.77140616930947,54.708246113002886)" fill="#e9b5d2"><path d="M12.42 6 l2.78 0 l-6.22 14 l-2.34 0 l-6.24 -14 l2.78 0 l4.62 10.76 z M33.26 6 l0 14 l-2.62 0 l0 -14 l2.62 0 z M60.339999999999996 20 l-2.78 0 l-3.12 -4.76 l-0.12 0 l-2.2 0 l0 4.76 l-2.62 0 l0 -14 l4.82 0 c3.14 0 5.12 1.92 5.12 4.7 c0 1.94 -0.96 3.38 -2.6 4.08 z M52.12 8.42 l0 4.56 l2.06 0 c1.58 0 2.64 -0.68 2.64 -2.28 c0 -1.58 -1.06 -2.28 -2.64 -2.28 l-2.06 0 z M85.38 6 l0 2.42 l-3.6 0 l0 11.58 l-2.62 0 l0 -11.58 l-3.58 0 l0 -2.42 l9.8 0 z M109.26 6 l2.62 0 l0 8.92 c0 3.4 -2.42 5.38 -5.32 5.38 c-2.92 0 -5.34 -1.98 -5.34 -5.38 l0 -8.92 l2.62 0 l0 8.92 c0 2.2 1.4 2.92 2.72 2.92 s2.7 -0.72 2.7 -2.92 l0 -8.92 z M139.34 20 l-1.16 -2.7 l-6.92 0 l-1.16 2.7 l-2.78 0 l6.24 -14 l2.34 0 l6.22 14 l-2.78 0 z M132.18 15.16 l5.08 0 l-2.54 -5.92 z M160.18 17.58 l5.68 0 l0 2.42 l-8.3 0 l0 -14 l2.62 0 l0 11.58 z M212.76 20 l-1.16 -2.7 l-6.92 0 l-1.16 2.7 l-2.78 0 l6.24 -14 l2.34 0 l6.22 14 l-2.78 0 z M205.6 15.16 l5.08 0 l-2.54 -5.92 z M235.5 5.76 c2.38 0 3.96 1.52 4.66 2.9 l-1.94 1.14 c-0.74 -1.1 -1.54 -1.72 -2.72 -1.72 c-1.12 0 -1.92 0.66 -1.92 1.56 c0 0.86 0.52 1.36 1.72 1.8 l0.96 0.36 c2.98 1.06 4.28 2.36 4.28 4.36 c0 2.72 -2.58 4.14 -4.96 4.14 c-2.5 0 -4.46 -1.48 -5.1 -3.44 l2.02 -1.06 c0.5 1.12 1.44 2.12 3.08 2.12 c1.24 0 2.24 -0.6 2.24 -1.72 c0 -1.14 -0.72 -1.64 -2.28 -2.22 l-0.9 -0.32 c-2.08 -0.76 -3.66 -1.8 -3.66 -4.12 c0 -2.2 2.02 -3.78 4.52 -3.78 z M260.8 5.76 c2.38 0 3.96 1.52 4.66 2.9 l-1.94 1.14 c-0.74 -1.1 -1.54 -1.72 -2.72 -1.72 c-1.12 0 -1.92 0.66 -1.92 1.56 c0 0.86 0.52 1.36 1.72 1.8 l0.96 0.36 c2.98 1.06 4.28 2.36 4.28 4.36 c0 2.72 -2.58 4.14 -4.96 4.14 c-2.5 0 -4.46 -1.48 -5.1 -3.44 l2.02 -1.06 c0.5 1.12 1.44 2.12 3.08 2.12 c1.24 0 2.24 -0.6 2.24 -1.72 c0 -1.14 -0.72 -1.64 -2.28 -2.22 l-0.9 -0.32 c-2.08 -0.76 -3.66 -1.8 -3.66 -4.12 c0 -2.2 2.02 -3.78 4.52 -3.78 z M284.2 6 l0 14 l-2.62 0 l0 -14 l2.62 0 z M304.96000000000004 5.76 c2.38 0 3.96 1.52 4.66 2.9 l-1.94 1.14 c-0.74 -1.1 -1.54 -1.72 -2.72 -1.72 c-1.12 0 -1.92 0.66 -1.92 1.56 c0 0.86 0.52 1.36 1.72 1.8 l0.96 0.36 c2.98 1.06 4.28 2.36 4.28 4.36 c0 2.72 -2.58 4.14 -4.96 4.14 c-2.5 0 -4.46 -1.48 -5.1 -3.44 l2.02 -1.06 c0.5 1.12 1.44 2.12 3.08 2.12 c1.24 0 2.24 -0.6 2.24 -1.72 c0 -1.14 -0.72 -1.64 -2.28 -2.22 l-0.9 -0.32 c-2.08 -0.76 -3.66 -1.8 -3.66 -4.12 c0 -2.2 2.02 -3.78 4.52 -3.78 z M334.54 6 l0 2.42 l-3.6 0 l0 11.58 l-2.62 0 l0 -11.58 l-3.58 0 l0 -2.42 l9.8 0 z M361.6 20 l-1.16 -2.7 l-6.92 0 l-1.16 2.7 l-2.78 0 l6.24 -14 l2.34 0 l6.22 14 l-2.78 0 z M354.44 15.16 l5.08 0 l-2.54 -5.92 z M389.12 6 l2.62 0 l0 14 l-2 0 l-7.3 -9.22 l0 9.22 l-2.62 0 l0 -14 l2.02 0 l7.28 9.24 l0 -9.24 z M417.38000000000005 6 l0 2.42 l-3.6 0 l0 11.58 l-2.62 0 l0 -11.58 l-3.58 0 l0 -2.42 l9.8 0 z"></path></g></svg>